<mxfile host="app.diagrams.net" modified="2023-11-30T03:43:57.952Z" agent="Mozilla/5.0 (Windows NT 10.0; Win64; x64) AppleWebKit/537.36 (KHTML, like Gecko) Chrome/114.0.5735.289 Safari/537.36" version="22.1.5" etag="HliweZ_Ie1Y03AdVvkQc" type="github">
  <diagram name="第 1 页" id="pnYyaZrb9VhqMHw-taTf">
    <mxGraphModel>
      <root>
        <mxCell id="0" />
        <mxCell id="1" parent="0" />
      </root>
    </mxGraphModel>
  </diagram>
</mxfile>
